<?xml version="1.0" encoding="UTF-8" standalone="no"?>
<!-- Created with Inkscape (http://www.inkscape.org/) -->

<svg
   xmlns:dc="http://purl.org/dc/elements/1.1/"
   xmlns:cc="http://creativecommons.org/ns#"
   xmlns:rdf="http://www.w3.org/1999/02/22-rdf-syntax-ns#"
   xmlns:svg="http://www.w3.org/2000/svg"
   xmlns="http://www.w3.org/2000/svg"
   xmlns:sodipodi="http://sodipodi.sourceforge.net/DTD/sodipodi-0.dtd"
   xmlns:inkscape="http://www.inkscape.org/namespaces/inkscape"
   width="210mm"
   height="297mm"
   viewBox="0 0 210 297"
   version="1.1"
   id="svg8"
   inkscape:version="0.92.1 r15371"
   sodipodi:docname="Deity'sVial Ttitle.svg">
  <defs
     id="defs2" />
  <sodipodi:namedview
     id="base"
     pagecolor="#ffffff"
     bordercolor="#666666"
     borderopacity="1.0"
     inkscape:pageopacity="0.0"
     inkscape:pageshadow="2"
     inkscape:zoom="1.979899"
     inkscape:cx="172.81244"
     inkscape:cy="1049.1475"
     inkscape:document-units="mm"
     inkscape:current-layer="layer1"
     showgrid="false"
     inkscape:window-width="1366"
     inkscape:window-height="705"
     inkscape:window-x="-8"
     inkscape:window-y="-8"
     inkscape:window-maximized="1" />
  <metadata
     id="metadata5">
    <rdf:RDF>
      <cc:Work
         rdf:about="">
        <dc:format>image/svg+xml</dc:format>
        <dc:type
           rdf:resource="http://purl.org/dc/dcmitype/StillImage" />
        <dc:title></dc:title>
      </cc:Work>
    </rdf:RDF>
  </metadata>
  <g
     inkscape:label="Layer 1"
     inkscape:groupmode="layer"
     id="layer1">
    <path
       style="fill:#ffaaaa;stroke:#000000;stroke-width:0.26458332px;stroke-linecap:butt;stroke-linejoin:miter;stroke-opacity:1"
       d="m 29.22735,9.748744 -7.559524,13.229167 -5.291667,-2.362351 -2.362351,-5.008185 0.47247,6.520089 7.370536,6.331101 13.323661,-2.173363 5.291666,-6.898065 -1.795387,-9.7328871 -6.992559,-5.6696427 h -8.787946 l -3.96875,2.6458334 5.480654,-0.2834823 z m -4.063244,14.268602 7.276041,-12.473215 3.02381,3.401786 0.188988,5.953125 -5.858631,3.49628 z"
       id="path3680"
       inkscape:connector-curvature="0" />
    <path
       style="fill:none;stroke:#000000;stroke-width:0.26458332px;stroke-linecap:butt;stroke-linejoin:miter;stroke-opacity:1"
       d="m 42.173034,27.797107 7.559525,-15.875 11.528271,-0.661458 -1.41741,5.291667 -2.740326,-2.456846 -5.480656,1.039435 -1.700893,3.874256 5.858632,0.09449 -2.173364,2.551339 -4.346726,-0.188988 -2.55134,4.819196 h 7.181548 l 4.346726,-2.645833 -2.078868,4.535714 z"
       id="path3684"
       inkscape:connector-curvature="0" />
    <path
       style="fill:none;stroke:#000000;stroke-width:0.26458332px;stroke-linecap:butt;stroke-linejoin:miter;stroke-opacity:1"
       d="m 63.056219,27.513625 3.96875,-13.701637 3.023809,-2.551339 1.41741,2.740327 -3.874254,13.512649 -3.023812,1.606399 z"
       id="path3686"
       inkscape:connector-curvature="0" />
    <path
       style="fill:none;stroke:#000000;stroke-width:0.26458332px;stroke-linecap:butt;stroke-linejoin:miter;stroke-opacity:1"
       d="m 75.907409,16.741304 2.267858,-5.386161 15.119045,-0.188988 -2.645833,5.291667 -1.322917,-2.740328 -3.77976,-0.09449 -3.590774,13.040179 1.511905,2.551339 h -7.843006 l 2.83482,-2.362351 3.496281,-13.229167 -2.834823,0.09449 z"
       id="path3688"
       inkscape:connector-curvature="0" />
  </g>
</svg>
